<svg xmlns="http://www.w3.org/2000/svg" width="30" height="30" viewBox="0 0 30 30">
    <path d="M8.74 0c-2.374 0-2.671.011-3.6.052a6.445 6.445 0 0 0-2.125.407 4.28 4.28 0 0 0-1.548 1.008A4.264 4.264 0 0 0 .459 3.015a6.426 6.426 0 0 0-.407 2.122C.009 6.069 0 6.365 0 8.74s.011 2.671.052 3.6a6.449 6.449 0 0 0 .406 2.122 4.286 4.286 0 0 0 1.008 1.548 4.274 4.274 0 0 0 1.548 1.008 6.453 6.453 0 0 0 2.122.406c.932.044 1.229.052 3.6.052s2.671-.011 3.6-.052a6.468 6.468 0 0 0 2.122-.406 4.467 4.467 0 0 0 2.556-2.556 6.449 6.449 0 0 0 .406-2.122c.044-.932.052-1.229.052-3.6s-.011-2.671-.052-3.6a6.463 6.463 0 0 0-.406-2.122 4.289 4.289 0 0 0-1.008-1.548A4.258 4.258 0 0 0 14.464.459a6.43 6.43 0 0 0-2.121-.407C11.411.009 11.114 0 8.74 0zm0 1.573c2.333 0 2.611.012 3.532.052a4.815 4.815 0 0 1 1.622.3 2.876 2.876 0 0 1 1.659 1.658 4.825 4.825 0 0 1 .3 1.622c.042.922.051 1.2.051 3.532s-.011 2.611-.054 3.532a4.918 4.918 0 0 1-.307 1.622 2.775 2.775 0 0 1-.653 1.009 2.727 2.727 0 0 1-1.005.653 4.861 4.861 0 0 1-1.628.3c-.928.042-1.2.051-3.539.051s-2.612-.011-3.539-.054a4.956 4.956 0 0 1-1.629-.307 2.707 2.707 0 0 1-1-.655 2.654 2.654 0 0 1-.655-1.005 4.96 4.96 0 0 1-.306-1.628c-.033-.918-.044-1.2-.044-3.528s.012-2.612.044-3.54a4.954 4.954 0 0 1 .306-1.627 2.591 2.591 0 0 1 .655-1.006 2.585 2.585 0 0 1 1-.654 4.837 4.837 0 0 1 1.618-.3c.929-.033 1.2-.044 3.539-.044l.033.022zm0 2.679a4.488 4.488 0 1 0 4.488 4.488A4.488 4.488 0 0 0 8.74 4.252zm0 7.4a2.913 2.913 0 1 1 2.913-2.912 2.912 2.912 0 0 1-2.913 2.913zm5.714-7.578a1.049 1.049 0 1 1-1.049-1.048 1.05 1.05 0 0 1 1.049 1.049z" transform="translate(6.188 6.187)" style="fill:#fff"/>
</svg>
