<svg width="14" height="12" viewBox="0 0 14 12" fill="none" xmlns="http://www.w3.org/2000/svg">
<path fill-rule="evenodd" clip-rule="evenodd" d="M6.92946 0.000244141C10.47 0.000244141 13.3402 2.29855 13.3402 5.13365C13.3402 6.12393 12.9897 7.04854 12.3831 7.83271C12.3531 7.87735 12.3138 7.92666 12.2644 7.98114L12.2607 7.98521C12.0534 8.23314 11.8201 8.4659 11.5635 8.68076C9.79069 10.3194 6.8727 12.2702 6.48758 11.9693C6.15278 11.7076 7.03899 10.428 6.01656 10.215C5.94523 10.2068 5.87409 10.198 5.80355 10.188L5.80221 10.188V10.1879C2.79925 9.76125 0.518799 7.66073 0.518799 5.13365C0.518706 2.29855 3.38891 0.000244141 6.92946 0.000244141Z" fill="white"/>
<path fill-rule="evenodd" clip-rule="evenodd" d="M3.21007 6.7708H4.50301C4.68692 6.7708 4.83734 6.62033 4.83734 6.43641V6.40852C4.83734 6.22461 4.68692 6.07419 4.50301 6.07419H3.5723V3.95665C3.5723 3.77274 3.42187 3.62231 3.23796 3.62231H3.21007C3.02616 3.62231 2.87573 3.77274 2.87573 3.95665V6.43637C2.87573 6.62033 3.02616 6.7708 3.21007 6.7708ZM11.2218 5.21647V5.18858C11.2218 5.00466 11.0713 4.85424 10.8874 4.85424H9.95673V4.32485H10.8874C11.0713 4.32485 11.2218 4.17442 11.2218 3.99051V3.96262C11.2218 3.77871 11.0713 3.62828 10.8874 3.62828H9.59445C9.41054 3.62828 9.26012 3.77871 9.26012 3.96262V6.44234C9.26012 6.62625 9.41054 6.77672 9.59445 6.77672H10.8874C11.0713 6.77672 11.2218 6.62625 11.2218 6.44234V6.41444C11.2218 6.23053 11.0713 6.08011 10.8874 6.08011H9.95673V5.55071H10.8874C11.0713 5.5508 11.2218 5.40033 11.2218 5.21647ZM8.7353 6.67112L8.73539 6.67098C8.79726 6.6086 8.83201 6.52432 8.83207 6.43646V3.95674C8.83207 3.77283 8.68165 3.62241 8.49769 3.62241H8.4698C8.28588 3.62241 8.13546 3.77283 8.13546 3.95674V5.41236L6.92699 3.79147C6.86926 3.69068 6.76056 3.62241 6.63668 3.62241H6.60879C6.42488 3.62241 6.27441 3.77283 6.27441 3.95674V6.43646C6.27441 6.62037 6.42483 6.77084 6.60879 6.77084H6.63668C6.8206 6.77084 6.97102 6.62037 6.97102 6.43646V4.9536L8.18819 6.61607C8.19568 6.62773 8.20387 6.63892 8.21271 6.64956L8.21275 6.64965C8.2462 6.69526 8.29194 6.72653 8.34292 6.74563C8.38209 6.76182 8.42493 6.7708 8.46975 6.7708H8.49764C8.55213 6.77083 8.60578 6.75742 8.65385 6.73176C8.68729 6.71585 8.71546 6.69531 8.7353 6.67112ZM5.44153 6.7708H5.46942C5.65334 6.7708 5.80376 6.62033 5.80376 6.43641V3.9567C5.80376 3.77278 5.65334 3.62236 5.46942 3.62236H5.44153C5.25762 3.62236 5.10715 3.77278 5.10715 3.9567V6.43641C5.10715 6.62033 5.25762 6.7708 5.44153 6.7708Z" fill="#333333"/>
<path fill-rule="evenodd" clip-rule="evenodd" d="M3.21007 6.7708H4.50301C4.68692 6.7708 4.83734 6.62033 4.83734 6.43641V6.40852C4.83734 6.22461 4.68692 6.07419 4.50301 6.07419H3.5723V3.95665C3.5723 3.77274 3.42187 3.62231 3.23796 3.62231H3.21007C3.02616 3.62231 2.87573 3.77274 2.87573 3.95665V6.43637C2.87573 6.62033 3.02616 6.7708 3.21007 6.7708ZM11.2218 5.21647V5.18858C11.2218 5.00466 11.0713 4.85424 10.8874 4.85424H9.95673V4.32485H10.8874C11.0713 4.32485 11.2218 4.17442 11.2218 3.99051V3.96262C11.2218 3.77871 11.0713 3.62828 10.8874 3.62828H9.59445C9.41054 3.62828 9.26012 3.77871 9.26012 3.96262V6.44234C9.26012 6.62625 9.41054 6.77672 9.59445 6.77672H10.8874C11.0713 6.77672 11.2218 6.62625 11.2218 6.44234V6.41444C11.2218 6.23053 11.0713 6.08011 10.8874 6.08011H9.95673V5.55071H10.8874C11.0713 5.5508 11.2218 5.40033 11.2218 5.21647ZM8.7353 6.67112L8.73539 6.67098C8.79726 6.6086 8.83201 6.52432 8.83207 6.43646V3.95674C8.83207 3.77283 8.68165 3.62241 8.49769 3.62241H8.4698C8.28588 3.62241 8.13546 3.77283 8.13546 3.95674V5.41236L6.92699 3.79147C6.86926 3.69068 6.76056 3.62241 6.63668 3.62241H6.60879C6.42488 3.62241 6.27441 3.77283 6.27441 3.95674V6.43646C6.27441 6.62037 6.42483 6.77084 6.60879 6.77084H6.63668C6.8206 6.77084 6.97102 6.62037 6.97102 6.43646V4.9536L8.18819 6.61607C8.19568 6.62773 8.20387 6.63892 8.21271 6.64956L8.21275 6.64965C8.2462 6.69526 8.29194 6.72653 8.34292 6.74563C8.38209 6.76182 8.42493 6.7708 8.46975 6.7708H8.49764C8.55213 6.77083 8.60578 6.75742 8.65385 6.73176C8.68729 6.71585 8.71546 6.69531 8.7353 6.67112ZM5.44153 6.7708H5.46942C5.65334 6.7708 5.80376 6.62033 5.80376 6.43641V3.9567C5.80376 3.77278 5.65334 3.62236 5.46942 3.62236H5.44153C5.25762 3.62236 5.10715 3.77278 5.10715 3.9567V6.43641C5.10715 6.62033 5.25762 6.7708 5.44153 6.7708Z" fill="black" fill-opacity="0.2"/>
<path fill-rule="evenodd" clip-rule="evenodd" d="M3.21007 6.7708H4.50301C4.68692 6.7708 4.83734 6.62033 4.83734 6.43641V6.40852C4.83734 6.22461 4.68692 6.07419 4.50301 6.07419H3.5723V3.95665C3.5723 3.77274 3.42187 3.62231 3.23796 3.62231H3.21007C3.02616 3.62231 2.87573 3.77274 2.87573 3.95665V6.43637C2.87573 6.62033 3.02616 6.7708 3.21007 6.7708ZM11.2218 5.21647V5.18858C11.2218 5.00466 11.0713 4.85424 10.8874 4.85424H9.95673V4.32485H10.8874C11.0713 4.32485 11.2218 4.17442 11.2218 3.99051V3.96262C11.2218 3.77871 11.0713 3.62828 10.8874 3.62828H9.59445C9.41054 3.62828 9.26012 3.77871 9.26012 3.96262V6.44234C9.26012 6.62625 9.41054 6.77672 9.59445 6.77672H10.8874C11.0713 6.77672 11.2218 6.62625 11.2218 6.44234V6.41444C11.2218 6.23053 11.0713 6.08011 10.8874 6.08011H9.95673V5.55071H10.8874C11.0713 5.5508 11.2218 5.40033 11.2218 5.21647ZM8.7353 6.67112L8.73539 6.67098C8.79726 6.6086 8.83201 6.52432 8.83207 6.43646V3.95674C8.83207 3.77283 8.68165 3.62241 8.49769 3.62241H8.4698C8.28588 3.62241 8.13546 3.77283 8.13546 3.95674V5.41236L6.92699 3.79147C6.86926 3.69068 6.76056 3.62241 6.63668 3.62241H6.60879C6.42488 3.62241 6.27441 3.77283 6.27441 3.95674V6.43646C6.27441 6.62037 6.42483 6.77084 6.60879 6.77084H6.63668C6.8206 6.77084 6.97102 6.62037 6.97102 6.43646V4.9536L8.18819 6.61607C8.19568 6.62773 8.20387 6.63892 8.21271 6.64956L8.21275 6.64965C8.2462 6.69526 8.29194 6.72653 8.34292 6.74563C8.38209 6.76182 8.42493 6.7708 8.46975 6.7708H8.49764C8.55213 6.77083 8.60578 6.75742 8.65385 6.73176C8.68729 6.71585 8.71546 6.69531 8.7353 6.67112ZM5.44153 6.7708H5.46942C5.65334 6.7708 5.80376 6.62033 5.80376 6.43641V3.9567C5.80376 3.77278 5.65334 3.62236 5.46942 3.62236H5.44153C5.25762 3.62236 5.10715 3.77278 5.10715 3.9567V6.43641C5.10715 6.62033 5.25762 6.7708 5.44153 6.7708Z" fill="black" fill-opacity="0.2"/>
</svg>
