<svg xmlns="http://www.w3.org/2000/svg" width="52" height="20" viewBox="0 0 52 20">
    <g data-name="Group 470719">
        <path data-name="Rectangle 349080" style="fill:#fff" d="M0 0h20v20H0z" transform="translate(32)"/>
        <g data-name="Group 467649" style="isolation:isolate">
            <path data-name="Path 845258" d="M5.606-.256 0 4.885" transform="translate(39.197 4.06)" style="stroke:#222;stroke-width:1.5px;fill:none"/>
            <path data-name="Line 8" transform="translate(38.926 11.391)" style="stroke:#222;stroke-width:1.5px;fill:none" d="M5.574 4.109 0 0"/>
            <g data-name="Ellipse 29" transform="translate(34 7)" style="stroke:#222;stroke-width:1.5px;fill:#fff">
                <circle cx="3.5" cy="3.5" r="3.5" style="stroke:none"/>
                <circle cx="3.5" cy="3.5" r="2.75" style="fill:none"/>
            </g>
            <g data-name="Ellipse 28" transform="translate(42)" style="stroke:#222;stroke-width:1.5px;fill:#fff">
                <circle cx="3.5" cy="3.5" r="3.5" style="stroke:none"/>
                <circle cx="3.5" cy="3.5" r="2.75" style="fill:none"/>
            </g>
            <g data-name="Ellipse 30" transform="translate(43 13)" style="stroke:#222;stroke-width:1.5px;fill:#fff">
                <circle cx="3.5" cy="3.5" r="3.5" style="stroke:none"/>
                <circle cx="3.5" cy="3.5" r="2.75" style="fill:none"/>
            </g>
        </g>
        <g data-name="16px_like_off">
            <path data-name="Rectangle 348822" style="fill:transparent" d="M0 0h20v20H0z"/>
            <path data-name="Path 845437" d="M14.25 24.442a.652.652 0 0 1-.463-.192l-7.123-7.123A4.827 4.827 0 1 1 13.49 10.3l.76.76.76-.76a4.827 4.827 0 1 1 6.826 6.826l-7.124 7.124a.652.652 0 0 1-.462.192zM10.077 10.2a3.518 3.518 0 0 0-2.488 6l6.661 6.661 6.661-6.661a3.519 3.519 0 1 0-4.976-4.976l-1.222 1.222a.654.654 0 0 1-.925 0l-1.222-1.222a3.5 3.5 0 0 0-2.489-1.024z" transform="translate(-4.25 -6.887)" style="fill:#222"/>
        </g>
    </g>
</svg>
