<svg width="16" height="16" viewBox="0 0 16 16" fill="none" xmlns="http://www.w3.org/2000/svg">
<g clip-path="url(#clip0_796_2133)">
<path fill-rule="evenodd" clip-rule="evenodd" d="M8.46666 0.96665C10.36 1.13998 11.96 2.29998 12.7467 4.07332L12.7533 4.07998C13.5733 5.93332 13.34 8.07998 12.1333 9.67998L8.07333 15.08C7.98 15.2067 7.83333 15.28 7.67333 15.28H7.65999C7.49999 15.2733 7.35333 15.1933 7.26 15.06L3.51333 9.61332C2.37999 7.97332 2.21333 5.82665 3.06666 4.01332C3.88666 2.27332 5.48666 1.13332 7.36 0.96665C7.72666 0.933317 8.10666 0.933317 8.46666 0.96665ZM7.68666 13.92L11.3267 9.07332H11.32C12.3067 7.75998 12.5 5.99998 11.8267 4.47998C11.1867 3.04665 9.89999 2.10665 8.37333 1.96665C8.06666 1.93998 7.75333 1.93998 7.44666 1.96665C5.94 2.09998 4.64 3.02665 3.97333 4.43998C3.26666 5.93332 3.40666 7.69998 4.33333 9.04665L7.68666 13.92ZM5.52667 6.09332C5.52667 4.79331 6.58667 3.73998 7.88 3.73998C9.18 3.73998 10.2333 4.79331 10.2333 6.09332C10.2333 7.39331 9.18 8.44665 7.88 8.44665C6.58 8.44665 5.52667 7.39331 5.52667 6.09332ZM6.52667 6.08665C6.52667 6.83332 7.13333 7.43998 7.88 7.43998C8.62667 7.43998 9.23333 6.83332 9.23333 6.08665C9.23333 5.33998 8.62667 4.73331 7.88 4.73331C7.13333 4.73331 6.52667 5.33998 6.52667 6.08665Z" fill="#333333"/>
<path fill-rule="evenodd" clip-rule="evenodd" d="M8.46666 0.96665C10.36 1.13998 11.96 2.29998 12.7467 4.07332L12.7533 4.07998C13.5733 5.93332 13.34 8.07998 12.1333 9.67998L8.07333 15.08C7.98 15.2067 7.83333 15.28 7.67333 15.28H7.65999C7.49999 15.2733 7.35333 15.1933 7.26 15.06L3.51333 9.61332C2.37999 7.97332 2.21333 5.82665 3.06666 4.01332C3.88666 2.27332 5.48666 1.13332 7.36 0.96665C7.72666 0.933317 8.10666 0.933317 8.46666 0.96665ZM7.68666 13.92L11.3267 9.07332H11.32C12.3067 7.75998 12.5 5.99998 11.8267 4.47998C11.1867 3.04665 9.89999 2.10665 8.37333 1.96665C8.06666 1.93998 7.75333 1.93998 7.44666 1.96665C5.94 2.09998 4.64 3.02665 3.97333 4.43998C3.26666 5.93332 3.40666 7.69998 4.33333 9.04665L7.68666 13.92ZM5.52667 6.09332C5.52667 4.79331 6.58667 3.73998 7.88 3.73998C9.18 3.73998 10.2333 4.79331 10.2333 6.09332C10.2333 7.39331 9.18 8.44665 7.88 8.44665C6.58 8.44665 5.52667 7.39331 5.52667 6.09332ZM6.52667 6.08665C6.52667 6.83332 7.13333 7.43998 7.88 7.43998C8.62667 7.43998 9.23333 6.83332 9.23333 6.08665C9.23333 5.33998 8.62667 4.73331 7.88 4.73331C7.13333 4.73331 6.52667 5.33998 6.52667 6.08665Z" fill="black" fill-opacity="0.2"/>
<path fill-rule="evenodd" clip-rule="evenodd" d="M8.46666 0.96665C10.36 1.13998 11.96 2.29998 12.7467 4.07332L12.7533 4.07998C13.5733 5.93332 13.34 8.07998 12.1333 9.67998L8.07333 15.08C7.98 15.2067 7.83333 15.28 7.67333 15.28H7.65999C7.49999 15.2733 7.35333 15.1933 7.26 15.06L3.51333 9.61332C2.37999 7.97332 2.21333 5.82665 3.06666 4.01332C3.88666 2.27332 5.48666 1.13332 7.36 0.96665C7.72666 0.933317 8.10666 0.933317 8.46666 0.96665ZM7.68666 13.92L11.3267 9.07332H11.32C12.3067 7.75998 12.5 5.99998 11.8267 4.47998C11.1867 3.04665 9.89999 2.10665 8.37333 1.96665C8.06666 1.93998 7.75333 1.93998 7.44666 1.96665C5.94 2.09998 4.64 3.02665 3.97333 4.43998C3.26666 5.93332 3.40666 7.69998 4.33333 9.04665L7.68666 13.92ZM5.52667 6.09332C5.52667 4.79331 6.58667 3.73998 7.88 3.73998C9.18 3.73998 10.2333 4.79331 10.2333 6.09332C10.2333 7.39331 9.18 8.44665 7.88 8.44665C6.58 8.44665 5.52667 7.39331 5.52667 6.09332ZM6.52667 6.08665C6.52667 6.83332 7.13333 7.43998 7.88 7.43998C8.62667 7.43998 9.23333 6.83332 9.23333 6.08665C9.23333 5.33998 8.62667 4.73331 7.88 4.73331C7.13333 4.73331 6.52667 5.33998 6.52667 6.08665Z" fill="black" fill-opacity="0.2"/>
</g>
<defs>
<clipPath id="clip0_796_2133">
<rect width="16" height="16" fill="white"/>
</clipPath>
</defs>
</svg>
