<svg xmlns="http://www.w3.org/2000/svg" width="30" height="30" viewBox="0 0 30 30">
    <path d="M21.629 6a2.769 2.769 0 0 0-1.923-1.923c-1.721-.461-8.652-.461-8.652-.461S4.143 3.6 2.4 4.074A2.769 2.769 0 0 0 .481 6 28.774 28.774 0 0 0 0 11.342a28.774 28.774 0 0 0 .481 5.325A2.769 2.769 0 0 0 2.4 18.589c1.72.462 8.652.462 8.652.462s6.91 0 8.651-.462a2.769 2.769 0 0 0 1.923-1.924 28.773 28.773 0 0 0 .46-5.324A28.774 28.774 0 0 0 21.629 6zM8.843 14.649V8.025l5.767 3.317z" transform="translate(3.91 3.475)" style="fill:#fff"/>
</svg>
