<svg xmlns="http://www.w3.org/2000/svg" width="26.194" height="23.496" viewBox="0 0 26.194 23.496"><defs><style>.a{fill:#fff;}</style></defs><g transform="translate(-1691.999 -8979.002)"><path class="a" d="M15.544,17.717H3a3,3,0,0,1-3-3V3A3,3,0,0,1,3,0H23.2a3,3,0,0,1,3,3V14.717a3,3,0,0,1-3,3H21.321v5.776Zm1.41-8.476A1.541,1.541,0,1,0,18.5,7.7,1.543,1.543,0,0,0,16.954,9.24Zm-5.393,0A1.541,1.541,0,1,0,13.1,7.7,1.543,1.543,0,0,0,11.561,9.24Zm-5.394,0A1.541,1.541,0,1,0,7.709,7.7,1.543,1.543,0,0,0,6.168,9.24Z" transform="translate(1691.996 8979.006)"/></g></svg>