<?xml version="1.0" encoding="UTF-8"?>
<svg xmlns="http://www.w3.org/2000/svg" xmlns:xlink="http://www.w3.org/1999/xlink" width="48pt" height="62pt" viewBox="0 0 48 62" version="1.1">
<g id="surface1">
<path style=" stroke:none;fill-rule:nonzero;fill:rgb(14.117647%,15.294118%,17.254902%);fill-opacity:1;" d="M 24.082031 61.046875 C 23.859375 61.046875 23.664062 60.894531 23.613281 60.679688 C 23.382812 59.6875 23.164062 58.699219 22.914062 57.71875 C 21.394531 51.757812 18.789062 46.269531 15.585938 41.039062 C 13.175781 37.109375 10.5625 33.296875 8.445312 29.1875 C 5.378906 23.234375 5.457031 17.304688 8.859375 11.5625 C 11.617188 6.90625 15.796875 4.082031 21.203125 3.222656 C 30.488281 1.746094 39.382812 7.761719 41.34375 16.8125 C 42.214844 20.824219 41.78125 24.675781 39.992188 28.410156 C 38.328125 31.875 36.296875 35.109375 34.234375 38.335938 C 31.746094 42.226562 29.4375 46.214844 27.636719 50.476562 C 26.289062 53.664062 25.292969 56.953125 24.617188 60.339844 C 24.59375 60.449219 24.570312 60.558594 24.546875 60.671875 C 24.5 60.890625 24.304688 61.046875 24.082031 61.046875 "/>
<path style=" stroke:none;fill-rule:nonzero;fill:rgb(14.117647%,15.294118%,17.254902%);fill-opacity:1;" d="M 23.601562 56.550781 C 23.734375 57.003906 24.382812 57.007812 24.515625 56.550781 C 24.824219 55.5 25.132812 54.460938 25.480469 53.433594 C 27.222656 48.296875 29.800781 43.5625 32.683594 38.984375 C 34.964844 35.355469 37.332031 31.785156 39.167969 27.890625 C 40.847656 24.324219 41.265625 20.652344 40.355469 16.859375 C 38.164062 7.742188 29.445312 2.5625 20.582031 4.316406 C 16.15625 5.191406 12.675781 7.566406 10.1875 11.28125 C 6.898438 16.195312 6.253906 21.496094 8.519531 26.960938 C 9.546875 29.433594 11 31.746094 12.363281 34.070312 C 13.898438 36.675781 15.578125 39.199219 17.144531 41.789062 C 19.523438 45.722656 21.476562 49.855469 22.894531 54.222656 C 23.144531 54.992188 23.375 55.765625 23.601562 56.550781 "/>
<path style=" stroke:none;fill-rule:nonzero;fill:rgb(100%,100%,100%);fill-opacity:1;" d="M 24.054688 58.175781 C 23.65625 56.84375 23.300781 55.546875 22.886719 54.269531 C 21.457031 49.871094 19.492188 45.714844 17.101562 41.757812 C 15.527344 39.152344 13.835938 36.617188 12.292969 33.992188 C 10.917969 31.652344 9.453125 29.328125 8.421875 26.839844 C 6.144531 21.34375 6.792969 16.011719 10.101562 11.070312 C 12.605469 7.332031 16.105469 4.941406 20.558594 4.058594 C 29.476562 2.296875 38.25 7.507812 40.453125 16.679688 C 41.371094 20.492188 40.949219 24.1875 39.257812 27.777344 C 37.410156 31.695312 35.027344 35.285156 32.734375 38.933594 C 29.835938 43.542969 27.238281 48.304688 25.488281 53.472656 C 24.964844 55.011719 24.535156 56.582031 24.054688 58.175781 "/>
<path style=" stroke:none;fill-rule:nonzero;fill:rgb(100%,100%,100%);fill-opacity:1;" d="M 23.972656 36.15625 C 32.96875 36.113281 39.578125 28.96875 39.824219 20.914062 C 40.089844 12.335938 33.210938 4.769531 24.039062 4.726562 C 15.28125 4.683594 8.152344 11.75 8.144531 20.429688 C 8.140625 29.085938 15.246094 36.148438 23.972656 36.15625 "/>
<path style=" stroke:none;fill-rule:nonzero;fill:rgb(14.117647%,14.901961%,17.254902%);fill-opacity:1;" d="M 27.699219 29.832031 L 27.859375 29.773438 L 27.335938 28.339844 L 27.171875 28.398438 C 26.816406 28.527344 26.863281 28.742188 27.054688 29.257812 C 27.242188 29.773438 27.339844 29.964844 27.699219 29.832031 "/>
<path style=" stroke:none;fill-rule:nonzero;fill:rgb(14.117647%,14.901961%,17.254902%);fill-opacity:1;" d="M 19.625 10.53125 C 19.976562 10.382812 19.921875 10.179688 19.703125 9.671875 C 19.488281 9.167969 19.378906 8.976562 19.027344 9.125 L 18.867188 9.191406 L 19.46875 10.597656 Z M 19.625 10.53125 "/>
<path style=" stroke:none;fill-rule:nonzero;fill:rgb(14.509804%,14.901961%,17.254902%);fill-opacity:1;" d="M 22.207031 20.753906 L 21.117188 24.074219 L 23.957031 22 L 26.789062 24.074219 L 25.699219 20.753906 L 28.53125 18.71875 L 25.054688 18.71875 L 23.957031 15.398438 L 22.859375 18.71875 L 19.375 18.71875 Z M 22.207031 20.753906 "/>
<path style=" stroke:none;fill-rule:nonzero;fill:rgb(14.509804%,14.901961%,17.254902%);fill-opacity:1;" d="M 23.964844 35.621094 C 32.527344 35.621094 39.46875 28.726562 39.472656 20.21875 L 39.472656 20.207031 C 39.46875 11.699219 32.53125 4.804688 23.96875 4.804688 L 23.960938 4.804688 C 15.398438 4.804688 8.460938 11.703125 8.457031 20.207031 L 8.457031 20.21875 C 8.460938 28.726562 15.402344 35.621094 23.964844 35.621094 M 13.273438 30.125 L 14.003906 29.417969 L 14.476562 29.894531 L 13.746094 30.605469 Z M 12.152344 25.34375 L 11.863281 24.777344 L 13.972656 23.710938 L 14.65625 25.046875 L 14.019531 25.367188 L 13.832031 25 L 13.273438 25.28125 C 13.105469 25.367188 12.972656 25.5 13.078125 25.703125 C 13.183594 25.914062 13.367188 25.878906 13.535156 25.792969 L 15.886719 24.605469 C 16.058594 24.519531 16.1875 24.386719 16.085938 24.183594 C 15.980469 23.976562 15.792969 24.003906 15.625 24.09375 L 15.042969 24.386719 L 14.546875 23.417969 L 14.984375 23.191406 C 15.8125 22.785156 16.355469 23.0625 16.753906 23.84375 C 17.082031 24.484375 17.117188 25.199219 16.160156 25.683594 L 14.257812 26.648438 C 13.300781 27.132812 12.851562 26.914062 12.527344 26.277344 C 12.453125 26.136719 12.386719 25.972656 12.359375 25.804688 C 12.320312 25.632812 12.328125 25.453125 12.390625 25.289062 Z M 13.066406 13.390625 L 13.585938 12.496094 L 15.011719 14.152344 L 17.65625 14.820312 L 17.113281 15.75 L 14.722656 15.136719 L 14.71875 15.148438 L 16.777344 16.328125 L 16.230469 17.269531 L 12.167969 14.9375 L 12.714844 13.996094 L 14.558594 15.054688 L 14.566406 15.042969 Z M 23.964844 14.121094 C 27.351562 14.121094 30.097656 16.847656 30.097656 20.214844 C 30.097656 23.578125 27.351562 26.304688 23.964844 26.304688 C 20.578125 26.304688 17.832031 23.578125 17.832031 20.214844 C 17.832031 16.847656 20.578125 14.121094 23.964844 14.121094 M 22.558594 7.445312 L 23.652344 7.425781 L 23.71875 11.382812 L 24.90625 11.363281 L 24.917969 12.070312 L 22.640625 12.109375 Z M 29.679688 12.710938 L 31.539062 9.863281 L 32.257812 10.328125 L 29.699219 14.238281 L 28.523438 13.480469 L 29.980469 9.773438 L 29.96875 9.765625 L 27.832031 13.035156 L 27.113281 12.574219 L 29.671875 8.660156 L 30.941406 9.480469 L 29.667969 12.703125 Z M 35.027344 26.746094 L 34.503906 27.6875 L 32.566406 25.78125 L 30.402344 25.417969 L 30.90625 24.515625 L 33.105469 24.941406 L 33.113281 24.929688 L 31.25 23.902344 L 31.777344 22.953125 L 35.886719 25.214844 L 35.355469 26.164062 L 33.273438 25.015625 L 33.265625 25.027344 Z M 32.761719 29.554688 L 31.9375 30.265625 L 28.855469 26.746094 L 29.683594 26.035156 Z M 35.566406 21.804688 L 34.238281 20.84375 L 32.890625 21.804688 L 33.410156 20.246094 L 32.074219 19.277344 L 33.726562 19.277344 L 34.238281 17.710938 L 34.75 19.277344 L 36.398438 19.277344 L 35.054688 20.246094 Z M 34.59375 15.277344 L 34.167969 15.527344 L 33.605469 14.59375 L 34.164062 14.261719 C 34.328125 14.164062 34.449219 14.023438 34.332031 13.824219 C 34.210938 13.628906 34.027344 13.667969 33.863281 13.765625 L 31.605469 15.117188 C 31.441406 15.214844 31.316406 15.351562 31.4375 15.550781 C 31.554688 15.75 31.738281 15.707031 31.902344 15.609375 L 32.441406 15.289062 L 32.226562 14.9375 L 32.835938 14.570312 L 33.613281 15.855469 L 31.585938 17.066406 L 31.253906 16.523438 L 31.429688 16.351562 C 31.253906 16.320312 31.097656 16.230469 30.972656 16.105469 C 30.84375 15.992188 30.738281 15.847656 30.65625 15.714844 C 30.289062 15.101562 30.335938 14.609375 31.257812 14.058594 L 33.085938 12.964844 C 34.007812 12.417969 34.601562 12.824219 34.976562 13.445312 C 35.429688 14.191406 35.378906 14.796875 34.59375 15.277344 M 26.496094 12.460938 L 25.429688 12.214844 L 26.488281 7.667969 L 27.550781 7.914062 Z M 18.910156 27.570312 L 15.859375 30.148438 L 14.753906 29.289062 L 17.644531 25.613281 L 18.320312 26.136719 L 16.214844 28.8125 L 16.226562 28.820312 L 18.878906 26.570312 L 20.074219 27.5 L 17.183594 31.171875 L 16.507812 30.648438 L 18.921875 27.578125 Z M 20.929688 27.78125 L 21.972656 28.097656 L 20.601562 32.558594 L 19.554688 32.238281 Z M 18.152344 14.492188 L 14.949219 11.082031 L 15.75 10.339844 L 18.949219 13.75 Z M 13.015625 19.277344 L 13.527344 17.710938 L 14.039062 19.277344 L 15.6875 19.277344 L 14.34375 20.246094 L 14.855469 21.808594 L 13.527344 20.84375 L 12.183594 21.808594 L 12.699219 20.246094 L 11.363281 19.277344 Z M 14.148438 30.980469 L 14.8125 30.214844 L 15.324219 30.652344 L 14.65625 31.417969 Z M 15.089844 31.757812 L 15.691406 30.9375 L 16.238281 31.332031 L 15.636719 32.152344 Z M 16.09375 32.457031 L 16.621094 31.589844 L 17.199219 31.9375 L 16.671875 32.804688 Z M 17.757812 33.367188 L 17.152344 33.066406 L 17.609375 32.160156 L 18.214844 32.457031 Z M 18.890625 33.835938 L 18.261719 33.585938 L 18.640625 32.644531 L 19.265625 32.890625 Z M 20.054688 34.210938 L 19.410156 34.015625 L 19.703125 33.046875 L 20.351562 33.238281 Z M 21.25 34.484375 L 20.589844 34.34375 L 20.800781 33.355469 L 21.460938 33.496094 Z M 22.460938 34.660156 L 21.792969 34.574219 L 21.917969 33.570312 L 22.589844 33.65625 Z M 23.683594 34.734375 L 23.011719 34.707031 L 23.054688 33.691406 L 23.726562 33.722656 Z M 22.238281 32.914062 L 22.277344 32.207031 L 23.460938 32.269531 L 23.667969 28.320312 L 24.757812 28.375 L 24.511719 33.035156 Z M 24.234375 34.734375 L 24.195312 33.722656 L 24.867188 33.695312 L 24.910156 34.707031 Z M 25.457031 34.660156 L 25.332031 33.65625 L 26 33.570312 L 26.128906 34.578125 Z M 26.171875 30.023438 L 25.878906 29.222656 C 25.601562 28.464844 26.058594 28.089844 26.878906 27.796875 L 28.132812 27.339844 L 29.738281 31.722656 L 28.710938 32.09375 L 28.089844 30.402344 L 27.714844 30.539062 C 27.105469 30.757812 26.414062 30.679688 26.171875 30.023438 M 26.671875 34.484375 L 26.460938 33.492188 L 27.121094 33.355469 L 27.332031 34.34375 Z M 27.863281 34.207031 L 27.570312 33.238281 L 28.214844 33.042969 L 28.511719 34.015625 Z M 29.03125 33.832031 L 28.65625 32.890625 L 29.285156 32.644531 L 29.660156 33.585938 Z M 30.164062 33.363281 L 29.710938 32.457031 L 30.316406 32.160156 L 30.765625 33.066406 Z M 31.25 32.804688 L 30.722656 31.9375 L 31.300781 31.589844 L 31.828125 32.457031 Z M 32.285156 32.152344 L 31.683594 31.332031 L 32.230469 30.9375 L 32.832031 31.757812 Z M 33.261719 31.421875 L 32.597656 30.652344 L 33.109375 30.214844 L 33.773438 30.984375 Z M 34.175781 30.609375 L 33.445312 29.898438 L 33.917969 29.421875 L 34.644531 30.128906 Z M 35.015625 29.722656 L 34.230469 29.074219 L 34.660156 28.558594 L 35.445312 29.207031 Z M 35.777344 28.773438 L 34.941406 28.191406 L 35.328125 27.640625 L 36.164062 28.21875 Z M 36.460938 27.761719 L 35.578125 27.253906 L 35.917969 26.671875 L 36.796875 27.179688 Z M 37.050781 26.695312 L 36.128906 26.261719 L 36.417969 25.65625 L 37.339844 26.085938 Z M 37.554688 25.585938 L 36.597656 25.230469 L 36.835938 24.601562 L 37.789062 24.957031 Z M 37.960938 24.433594 L 36.976562 24.160156 L 37.160156 23.515625 L 38.140625 23.789062 Z M 38.265625 23.257812 L 37.265625 23.066406 L 37.390625 22.410156 L 38.394531 22.601562 Z M 38.476562 22.058594 L 37.460938 21.953125 L 37.53125 21.285156 L 38.546875 21.390625 Z M 38.582031 20.847656 L 37.5625 20.824219 L 37.578125 20.15625 L 38.597656 20.175781 Z M 38.582031 19.628906 L 37.566406 19.691406 L 37.523438 19.023438 L 38.539062 18.960938 Z M 38.484375 18.417969 L 37.476562 18.5625 L 37.378906 17.902344 L 38.386719 17.753906 Z M 38.28125 17.21875 L 37.289062 17.449219 L 37.136719 16.796875 L 38.128906 16.566406 Z M 37.980469 16.039062 L 37.011719 16.351562 L 36.800781 15.714844 L 37.773438 15.402344 Z M 37.582031 14.886719 L 36.640625 15.277344 L 36.382812 14.660156 L 37.320312 14.269531 Z M 37.085938 13.777344 L 36.179688 14.242188 L 35.871094 13.648438 L 36.773438 13.179688 Z M 36.5 12.707031 L 35.636719 13.25 L 35.277344 12.683594 L 36.136719 12.140625 Z M 35.824219 11.691406 L 35.011719 12.304688 L 34.605469 11.769531 L 35.417969 11.160156 Z M 35.066406 10.738281 L 34.308594 11.414062 L 33.855469 10.917969 L 34.617188 10.238281 Z M 34.230469 9.847656 L 33.53125 10.585938 L 33.042969 10.128906 L 33.738281 9.390625 Z M 33.324219 9.03125 L 32.6875 9.824219 L 32.160156 9.410156 L 32.792969 8.617188 Z M 32.351562 8.296875 L 31.785156 9.140625 L 31.222656 8.769531 L 31.789062 7.925781 Z M 30.726562 7.316406 L 31.316406 7.640625 L 30.828125 8.527344 L 30.234375 8.203125 Z M 29.617188 6.800781 L 30.234375 7.074219 L 29.820312 8 L 29.203125 7.726562 Z M 28.472656 6.382812 L 29.109375 6.601562 L 28.773438 7.558594 L 28.136719 7.335938 Z M 27.292969 6.054688 L 27.945312 6.222656 L 27.691406 7.203125 L 27.039062 7.035156 Z M 26.09375 5.828125 L 26.757812 5.941406 L 26.585938 6.9375 L 25.921875 6.824219 Z M 24.875 5.699219 L 25.546875 5.757812 L 25.460938 6.765625 L 24.789062 6.710938 Z M 23.632812 5.636719 L 24.308594 5.636719 L 24.308594 6.652344 L 23.632812 6.652344 Z M 23.082031 5.664062 L 23.167969 6.675781 L 22.496094 6.730469 L 22.410156 5.71875 Z M 21.859375 5.789062 L 22.03125 6.789062 L 21.363281 6.898438 L 21.191406 5.898438 Z M 20.65625 6.015625 L 20.90625 6.996094 L 20.253906 7.164062 L 20 6.183594 Z M 19.472656 6.339844 L 19.808594 7.300781 L 19.167969 7.519531 L 18.832031 6.5625 Z M 20.539062 8.851562 L 20.875 9.632812 C 21.148438 10.277344 20.695312 10.804688 20.101562 11.054688 L 19.730469 11.210938 L 20.441406 12.871094 L 19.433594 13.292969 L 17.601562 9 L 18.832031 8.484375 C 19.628906 8.144531 20.222656 8.109375 20.539062 8.851562 M 18.324219 6.761719 L 18.738281 7.691406 L 18.121094 7.960938 L 17.707031 7.035156 Z M 17.210938 7.28125 L 17.703125 8.167969 L 17.109375 8.492188 L 16.617188 7.601562 Z M 16.148438 7.886719 L 16.710938 8.734375 L 16.148438 9.101562 L 15.585938 8.257812 Z M 15.136719 8.582031 L 15.773438 9.378906 L 15.242188 9.792969 L 14.609375 9 Z M 14.191406 9.355469 L 14.890625 10.097656 L 14.398438 10.554688 L 13.699219 9.816406 Z M 13.316406 10.210938 L 14.074219 10.886719 L 13.621094 11.386719 L 12.863281 10.707031 Z M 12.511719 11.128906 L 13.324219 11.742188 L 12.914062 12.277344 L 12.101562 11.664062 Z M 11.789062 12.113281 L 12.652344 12.65625 L 12.289062 13.222656 L 11.429688 12.679688 Z M 11.152344 13.15625 L 12.054688 13.625 L 11.742188 14.21875 L 10.839844 13.75 Z M 10.605469 14.242188 L 11.546875 14.636719 L 11.28125 15.253906 L 10.339844 14.863281 Z M 10.148438 15.375 L 11.121094 15.691406 L 10.910156 16.328125 L 9.941406 16.015625 Z M 9.792969 16.542969 L 10.789062 16.773438 L 10.632812 17.429688 L 9.640625 17.195312 Z M 9.535156 17.734375 L 10.546875 17.882812 L 10.445312 18.546875 L 9.4375 18.398438 Z M 9.378906 18.945312 L 10.398438 19.007812 L 10.355469 19.675781 L 9.335938 19.613281 Z M 9.324219 20.160156 L 10.347656 20.140625 L 10.359375 20.8125 L 9.339844 20.832031 Z M 9.375 21.378906 L 10.390625 21.273438 L 10.460938 21.941406 L 9.445312 22.046875 Z M 9.523438 22.585938 L 10.527344 22.398438 L 10.652344 23.054688 L 9.652344 23.246094 Z M 9.78125 23.78125 L 10.761719 23.507812 L 10.945312 24.152344 L 9.960938 24.425781 Z M 10.128906 24.945312 L 11.085938 24.59375 L 11.320312 25.222656 L 10.367188 25.574219 Z M 10.578125 26.078125 L 11.5 25.648438 L 11.789062 26.253906 L 10.867188 26.6875 Z M 11.121094 27.171875 L 12.003906 26.664062 L 12.34375 27.246094 L 11.457031 27.753906 Z M 11.757812 28.214844 L 12.59375 27.636719 L 12.980469 28.1875 L 12.140625 28.765625 Z M 12.472656 29.203125 L 13.261719 28.554688 L 13.691406 29.074219 L 12.90625 29.71875 Z M 12.472656 29.203125 "/>
</g>
</svg>
