<svg xmlns="http://www.w3.org/2000/svg" width="122" height="20" viewBox="0 0 122 20">
    <g fill="none" fill-rule="evenodd">
        <path d="M0 0H122V20H0z"/>
        <path fill="#79A3DC" fill-rule="nonzero" d="M77.853.324h2.319v19.191h-2.319V.324zm-66.19 17.112c-.195.421-.423.826-.683 1.21-.266.57-.854.923-1.485.89H0V1.202C0 .74.377.363.843.363h1.475v17.063l9.344.01zM37.957.354v19.171h2.308V6.001l10.308 13.154c.226.245.55.377.883.36h.251V.364H49.46v14.263L38.41.194c-.066-.088-.182-.123-.285-.086-.104.037-.171.136-.167.246zm-13.87 4.698l5.78 13.943c.129.315.433.523.773.53h1.687L24.288.274c-.041-.102-.14-.168-.25-.168-.11 0-.21.066-.252.168l-8.029 19.241h1.676c.345-.003.654-.212.783-.53l5.872-13.933zM58.653.364h12.225c-.196.417-.424.818-.683 1.2-.266.57-.854.923-1.485.889h-7.748V8.78h8.741v1.8h-8.741v6.856h7.708c.63-.034 1.22.319 1.485.89.259.381.487.782.683 1.2H58.613V.363h12.265m31.253 4.798c-.363-1.377-1.158-2.602-2.268-3.499-1.421-1.13-3.2-1.718-5.018-1.659-2.291-.07-4.48.95-5.892 2.749-1.551 2.09-2.328 4.65-2.198 7.247-.131 2.605.645 5.176 2.198 7.276 1.427 1.788 3.62 2.797 5.912 2.719 2.055.075 4.049-.707 5.5-2.159 1.434-1.547 2.183-3.604 2.078-5.707v-2.49h-5.089c-.63-.021-1.216.327-1.495.89l-.683.92h5.018v.68c.092 1.51-.429 2.993-1.445 4.118-1.02 1.013-2.427 1.54-3.864 1.449-1.594.074-3.126-.622-4.115-1.87-1.224-1.689-1.827-3.746-1.706-5.826-.117-2.07.481-4.116 1.696-5.798.98-1.256 2.51-1.963 4.105-1.899 1.262-.046 2.499.354 3.493 1.13.366.343.702.718 1.003 1.119.233.364.63.592 1.064.61h1.706zm6.635-4.798H121c-.195.417-.424.818-.682 1.2-.268.574-.861.927-1.496.889h-7.738V8.78h8.742v1.8h-8.742v6.856h7.698c.635-.038 1.228.315 1.495.89.26.381.487.782.683 1.2h-12.235V.363H121"/>
    </g>
</svg>
