
<svg width="174" height="33" viewBox="0 0 174 33" fill="none" xmlns="http://www.w3.org/2000/svg">
<path d="M84.9908 0.000767524C84.5608 5.50621 84.8363 10.9431 84.7303 16.4677C84.9349 16.3498 85.0618 16.2871 85.1775 16.2083C86.5085 15.2973 87.9001 14.5043 89.4946 14.1292C90.9056 13.7968 92.3128 13.8528 93.6692 14.3436C95.6378 15.0563 96.6202 16.5642 96.821 18.5475C96.9479 19.7982 96.9099 21.0666 96.9084 22.3276C96.9039 25.538 96.8785 28.7492 96.8606 31.9596C96.8606 32.0672 96.8479 32.174 96.8404 32.3001H93.6184C93.6095 32.1497 93.593 31.9972 93.593 31.8446C93.5915 28.2414 93.5915 24.6382 93.593 21.0349C93.593 20.026 93.5102 19.034 93.0466 18.1083C92.3956 16.8082 91.3124 16.1486 89.8739 15.9931C88.2009 15.8125 86.7586 16.4006 85.4022 17.2791C84.9483 17.5732 84.734 17.9587 84.737 18.5357C84.7602 22.96 84.7497 27.3842 84.7497 31.8085V32.2595H81.4001C81.4001 32.121 81.4001 32.0023 81.4001 31.8829C81.4001 22.887 81.3702 13.8911 81.4225 4.89596C81.4352 2.74096 82.6557 1.18956 84.5519 0.157013C84.6669 0.0943673 84.8012 0.0670981 84.9908 3.05176e-05V0.000767524Z" fill="#E86E25"/>
<path d="M1.75862 23.8341C2.03484 25.0951 2.44094 26.306 3.06355 27.4358C3.92354 28.9968 5.04184 30.3138 6.73271 31.0545C9.0014 32.048 11.9308 31.5004 13.5 29.7891C14.3249 28.8899 14.6966 27.8065 14.7623 26.6111C14.9146 23.8496 13.6709 21.8132 11.3843 20.3259C9.72702 19.2477 8.05182 18.1967 6.40872 17.0986C4.67231 15.9385 3.20837 14.5065 2.41855 12.5549C1.38835 10.01 1.54437 7.52192 3.12476 5.21877C4.14302 3.73591 5.6719 2.92152 7.36726 2.40856C9.14921 1.86908 10.9819 1.68482 12.8438 1.78727C13.7605 1.83738 14.6772 1.89119 15.5932 1.94351C15.5604 2.83529 14.8049 3.36962 13.7933 3.31508C12.2548 3.2318 10.7132 3.18905 9.19102 3.4986C7.95477 3.74992 6.79841 4.18033 5.96529 5.17529C4.72232 6.66036 4.60736 8.98782 5.66966 10.7574C6.402 11.9771 7.45386 12.8858 8.64158 13.6472C10.2227 14.6598 11.8404 15.6187 13.4051 16.6549C15.1871 17.8348 16.7137 19.2904 17.4827 21.3084C18.6704 24.4266 18.3994 27.3938 16.13 29.9977C14.8989 31.4098 13.2529 32.1785 11.4313 32.575C8.81999 33.1432 6.25344 33.0187 3.78618 31.9404C2.33792 31.3081 1.10243 30.4192 0.392482 28.9511C-0.606368 26.886 0.467134 24.7598 1.75862 23.8333V23.8341Z" fill="#E86E25"/>
<path d="M58.973 27.3857C59.3052 26.3863 59.609 25.4746 59.9114 24.5622C60.9856 21.3187 62.0621 18.0766 63.1289 14.8308C63.2162 14.564 63.3215 14.4313 63.6403 14.452C64.1598 14.4866 64.6846 14.4734 65.2065 14.4564C65.4625 14.4483 65.5894 14.5109 65.6813 14.7748C67.0802 18.7996 68.4942 22.8185 69.9051 26.8388C69.9559 26.984 70.0178 27.1248 70.1081 27.3518C70.3844 26.6656 70.6322 26.0576 70.8748 25.4474C71.9476 22.7448 73.0151 20.0392 74.0938 17.3388C74.4238 16.5119 74.865 15.7484 75.5682 15.1647C76.1169 14.7092 76.7335 14.4476 77.5047 14.5522C76.5477 16.1331 75.875 17.8105 75.192 19.4828C73.4668 23.7029 71.7438 27.923 70.0335 32.149C69.9081 32.4585 69.7558 32.5971 69.4169 32.547C69.2347 32.5197 69.0451 32.5418 68.8107 32.5418C67.1176 27.8368 65.423 23.1251 63.6903 18.3095C63.2998 19.356 62.9482 20.2913 62.6026 21.2288C61.2491 24.8946 59.8964 28.5612 58.546 32.2293C58.4736 32.4261 58.4011 32.6015 58.1399 32.5403C57.8748 32.4784 57.5449 32.7157 57.3657 32.2735C55.0224 26.4843 52.6634 20.7018 50.3088 14.9178C50.2685 14.819 50.2394 14.7166 50.1804 14.5434C50.5552 14.5434 50.8836 14.5441 51.2129 14.5434C51.9467 14.5412 52.6805 14.5478 53.4136 14.5301C53.6689 14.5235 53.8003 14.5898 53.9011 14.8411C55.4972 18.835 57.1059 22.8236 58.7132 26.8138C58.7804 26.9804 58.8617 27.141 58.9737 27.3864L58.973 27.3857Z" fill="#E86E25"/>
<path d="M142.87 32.8057C139.728 32.7578 137.287 31.8439 135.405 29.694C134.343 28.4809 133.713 27.0548 133.438 25.4879C133.025 23.1288 133.308 20.8529 134.503 18.7451C135.987 16.1257 138.267 14.5648 141.265 14.0872C144.497 13.572 147.352 14.368 149.665 16.7102C151.085 18.1488 151.849 19.9184 152.071 21.9127C152.339 24.3161 151.959 26.5949 150.638 28.663C149.23 30.8659 147.17 32.1416 144.592 32.6126C143.924 32.7349 143.239 32.7666 142.87 32.8064V32.8057ZM148.272 23.6572C148.3 22.6549 148.134 21.4219 147.812 20.2102C147.397 18.6529 146.766 17.2069 145.544 16.0778C144.032 14.6805 141.705 14.4815 140.058 15.6179C139.045 16.3174 138.394 17.2961 137.964 18.4105C136.973 20.9804 136.919 23.6115 137.552 26.2662C137.913 27.7837 138.517 29.1966 139.622 30.35C140.823 31.6036 142.291 32.0856 144.012 31.7436C145.569 31.4334 146.541 30.4111 147.209 29.0698C148.018 27.4454 148.279 25.7031 148.272 23.6587V23.6572Z" fill="#E86E25"/>
<path d="M164.421 32.8373C161.772 32.7732 159.439 31.9706 157.578 30.0647C156.161 28.6143 155.408 26.8506 155.186 24.8563C154.912 22.4013 155.35 20.0997 156.768 18.0383C158.286 15.8302 160.413 14.5154 163.083 14.0827C165.836 13.6369 168.367 14.1734 170.584 15.8847C172.393 17.2821 173.444 19.1533 173.826 21.3658C174.236 23.7346 173.939 26.0281 172.759 28.1559C171.373 30.6543 169.208 32.1151 166.378 32.617C165.733 32.7312 165.073 32.7659 164.421 32.8373ZM170.137 23.5046C170.065 22.9261 169.995 21.9481 169.812 20.9907C169.495 19.3295 168.914 17.7692 167.762 16.4662C166.166 14.6613 163.52 14.3473 161.678 15.7786C160.556 16.6512 159.927 17.8533 159.524 19.1769C158.921 21.1551 158.843 23.173 159.164 25.2005C159.426 26.8551 159.952 28.4234 160.975 29.7942C162.264 31.5225 164.218 32.2382 166.173 31.6626C167.729 31.2049 168.617 30.0603 169.226 28.66C169.886 27.1418 170.083 25.5358 170.137 23.5046Z" fill="#E86E25"/>
<path d="M25.5093 13.6693C25.5093 13.8889 25.5093 14.0348 25.5093 14.1808C25.5093 18.0898 25.4996 21.9989 25.5182 25.908C25.5212 26.6008 25.5735 27.3068 25.7213 27.9819C26.0617 29.537 26.9307 30.3079 28.5282 30.5482C29.4935 30.6934 30.4595 30.6705 31.4053 30.3971C33.3269 29.8407 34.369 28.4455 34.3795 26.3694C34.3929 23.6491 34.3369 20.9273 34.3989 18.2085C34.4444 16.2208 35.4843 14.7792 37.2514 13.841C37.3484 13.7894 37.4574 13.7592 37.5627 13.7268C37.5933 13.7172 37.6328 13.7356 37.6978 13.7459C37.6978 13.9154 37.6978 14.0835 37.6978 14.2523C37.6888 17.2298 37.7523 20.2095 37.6523 23.1848C37.5141 27.2884 35.229 30.9233 30.5789 32.3111C28.9523 32.7961 27.3047 32.9899 25.6496 32.4055C23.7131 31.7215 22.2791 29.9063 22.2365 27.8788C22.1693 24.6698 22.1365 21.4587 22.1932 18.2498C22.2268 16.3395 23.2152 14.8927 24.8964 13.9272C25.0711 13.827 25.2711 13.7688 25.5093 13.67V13.6693Z" fill="#E86E25"/>
<path d="M114.896 32.4077H111.613V30.4193C111.419 30.5925 111.304 30.6875 111.198 30.7922C110.134 31.8277 108.918 32.6082 107.425 32.8727C105.918 33.1403 104.453 33.0201 103.127 32.1844C101.955 31.4452 101.39 30.3286 101.261 28.9998C101.183 28.1972 101.214 27.3909 101.449 26.6001C101.906 25.0612 103.004 24.1319 104.48 23.6705C105.652 23.3035 106.879 23.1008 108.087 22.8472C109.176 22.618 110.279 22.4478 111.266 21.8869C111.516 21.7454 111.63 21.5848 111.625 21.2804C111.604 20.0208 111.67 18.7554 111.317 17.5253C111.217 17.176 111.074 16.8325 110.908 16.5083C109.995 14.7299 107.645 14.8109 106.641 16.2872C106.315 16.7655 106.116 17.3278 105.831 17.9086H102.805C103.172 16.9298 103.77 16.1832 104.573 15.5958C105.749 14.7358 107.094 14.3289 108.534 14.1579C109.914 13.9943 111.235 14.1513 112.47 14.7932C113.919 15.5472 114.634 16.7994 114.816 18.3618C114.892 19.0163 114.894 19.6818 114.894 20.3422C114.901 24.2026 114.897 28.0638 114.897 31.9242V32.4077H114.896ZM111.583 23.2143C111.518 23.2143 111.467 23.2047 111.421 23.2158C109.934 23.5798 108.444 23.9299 106.963 24.3161C105.337 24.7406 104.362 25.7429 104.18 27.441C103.873 30.2954 106.239 32.1475 108.827 31.1518C110.594 30.4723 111.347 28.9931 111.528 27.2479C111.658 25.9862 111.593 24.7052 111.613 23.4324C111.614 23.3632 111.595 23.2931 111.584 23.2143H111.583Z" fill="#E86E25"/>
<path d="M46.3791 0.000762939C46.3306 0.809996 46.2664 1.56469 46.2433 2.32086C46.188 4.14495 46.1171 5.96904 46.1134 7.79313C46.0984 15.769 46.1052 23.7449 46.1037 31.7215C46.1037 31.8792 46.1037 32.0377 46.1037 32.2234H42.819C42.8122 32.0996 42.8003 31.9706 42.8003 31.8417C42.7995 23.1796 42.8048 14.5176 42.7951 5.85481C42.7936 4.14348 43.2064 2.58839 44.3911 1.292C44.9294 0.70313 45.5639 0.245449 46.3791 0.000762939Z" fill="#E86E25"/>
<path d="M119.805 27.8544C120.211 28.5634 120.546 29.3233 121.036 29.966C122.077 31.3302 124.25 31.9014 125.888 31.3331C127.473 30.7833 128.177 29.027 127.47 27.3982C127.126 26.6052 126.544 26.0053 125.835 25.5358C125.064 25.0251 124.254 24.5703 123.466 24.0832C122.42 23.4368 121.409 22.7455 120.661 21.7535C118.599 19.0177 119.913 15.2988 123.294 14.3245C124.627 13.9405 125.999 13.844 127.384 13.9184C127.991 13.9508 128.597 13.9869 129.204 14.0208C129.157 14.7217 128.613 15.2575 127.921 15.2664C127.027 15.2782 126.132 15.2391 125.238 15.2664C123.528 15.318 122.493 16.425 122.593 18.0957C122.655 19.1519 123.295 19.8904 124.128 20.4497C125.008 21.0401 125.942 21.5538 126.853 22.1006C127.908 22.7345 128.91 23.4302 129.67 24.4148C131.031 26.18 131.127 28.7698 129.861 30.4494C128.975 31.6257 127.728 32.2507 126.306 32.5595C124.589 32.9324 122.884 32.9044 121.211 32.3214C120.557 32.093 119.981 31.7355 119.55 31.1872C118.746 30.162 118.877 28.786 119.807 27.8544H119.805Z" fill="#E86E25"/>
</svg>
